<svg width="18" height="16" viewBox="0 0 31 30" fill="none" xmlns="http://www.w3.org/2000/svg">
<path d="M28.7333 25.644C28.7333 25.9153 28.6253 26.1754 28.4329 26.3672C28.2406 26.559 27.9797 26.6667 27.7077 26.6667H3.09229C2.82027 26.6667 2.5594 26.559 2.36705 26.3672C2.17471 26.1754 2.06665 25.9153 2.06665 25.644C2.06665 25.3728 2.17471 25.1126 2.36705 24.9208C2.5594 24.729 2.82027 24.6213 3.09229 24.6213H27.7077C27.9797 24.6213 28.2406 24.729 28.4329 24.9208C28.6253 25.1126 28.7333 25.3728 28.7333 25.644ZM28.7333 6.2122V20.5304C28.7333 21.0729 28.5172 21.5931 28.1325 21.9767C27.7478 22.3603 27.2261 22.5758 26.682 22.5758H4.11793C3.5739 22.5758 3.05215 22.3603 2.66746 21.9767C2.28277 21.5931 2.06665 21.0729 2.06665 20.5304V6.2122C2.06665 5.66971 2.28277 5.14944 2.66746 4.76585C3.05215 4.38225 3.5739 4.16675 4.11793 4.16675H26.682C27.2261 4.16675 27.7478 4.38225 28.1325 4.76585C28.5172 5.14944 28.7333 5.66971 28.7333 6.2122ZM20.0154 13.3713C20.0153 13.207 19.9756 13.0451 19.8995 12.8993C19.8234 12.7535 19.7132 12.6282 19.5782 12.5339L14.45 8.95439C14.2963 8.84705 14.1161 8.78379 13.9288 8.77151C13.7416 8.75923 13.5546 8.7984 13.3882 8.88475C13.2217 8.9711 13.0822 9.10132 12.9848 9.26124C12.8875 9.42116 12.8359 9.60466 12.8359 9.79175V13.3713V16.9508C12.8359 17.1379 12.8875 17.3214 12.9848 17.4813C13.0822 17.6413 13.2217 17.7715 13.3882 17.8578C13.5546 17.9442 13.7416 17.9834 13.9288 17.9711C14.1161 17.9588 14.2963 17.8955 14.45 17.7882L19.5782 14.2087C19.7132 14.1144 19.8234 13.989 19.8995 13.8433C19.9756 13.6975 20.0153 13.5356 20.0154 13.3713Z" fill="url(#paint0_linear_70825_44)"/>
<defs>
<linearGradient id="paint0_linear_70825_44" x1="15.4" y1="4.16675" x2="15.4" y2="26.6667" gradientUnits="userSpaceOnUse">
<stop stop-color="#F8E889"/>
<stop offset="1" stop-color="#E4B764"/>
</linearGradient>
</defs>
</svg>
