<svg width="17" height="16" viewBox="0 0 31 30" fill="none" xmlns="http://www.w3.org/2000/svg">
<path d="M2.4668 6.87508C2.4668 5.3855 3.6668 4.16675 5.13346 4.16675H26.4668C27.174 4.16675 27.8523 4.45209 28.3524 4.96C28.8525 5.46791 29.1335 6.15679 29.1335 6.87508V23.1251C29.1335 23.8434 28.8525 24.5323 28.3524 25.0402C27.8523 25.5481 27.174 25.8334 26.4668 25.8334H5.13346C4.42622 25.8334 3.74794 25.5481 3.24785 25.0402C2.74775 24.5323 2.4668 23.8434 2.4668 23.1251V6.87508ZM10.4668 6.87508V23.1251H21.1335V6.87508H10.4668ZM5.13346 8.22925V10.9376H7.80013V8.22925H5.13346ZM5.13346 13.6459V16.3542H7.80013V13.6459H5.13346ZM5.13346 19.0626V21.7709H7.80013V19.0626H5.13346ZM23.8001 8.22925V10.9376H26.4668V8.22925H23.8001ZM23.8001 13.6459V16.3542H26.4668V13.6459H23.8001ZM23.8001 19.0626V21.7709H26.4668V19.0626H23.8001ZM13.1335 10.9376L19.8001 15.0001L13.1335 19.0626V10.9376Z" fill="url(#paint0_linear_20303_78)"/>
<defs>
<linearGradient id="paint0_linear_20303_78" x1="15.8001" y1="4.16675" x2="15.8001" y2="25.8334" gradientUnits="userSpaceOnUse">
<stop stop-color="#F8E889"/>
<stop offset="1" stop-color="#E4B764"/>
</linearGradient>
</defs>
</svg>
