<svg
                    width="17"
                    height="16"
                    viewBox="0 0 31 30"
                    fill="none"
                    xmlns="http://www.w3.org/2000/svg"
                  >
                    <path
                      fill-rule="evenodd"
                      clip-rule="evenodd"
                      d="M9.22457 1.66675H25.0863C25.6101 1.66675 26.0333 2.09234 26.0333 2.61913V24.2858C26.0333 24.4168 25.9268 24.5239 25.7965 24.5239H24.1393C24.0091 24.5239 23.9026 24.4168 23.9026 24.2858V3.80961H9.22457C9.09436 3.80961 8.98783 3.70246 8.98783 3.57151V1.90484C8.98783 1.77389 9.09436 1.66675 9.22457 1.66675ZM6.14692 5.47627H21.2984C21.8222 5.47627 22.2454 5.90187 22.2454 6.42865V27.381C22.2454 27.9078 21.8222 28.3334 21.2984 28.3334H11.2754C9.68576 28.3334 7.81777 28.3334 6.1997 28.3334C5.64742 28.3334 5.19995 27.8869 5.19995 27.3346C5.19995 25.6262 5.19995 22.4193 5.19995 22.2233V6.42865C5.19995 5.90187 5.62313 5.47627 6.14692 5.47627ZM18.0134 16.1783C18.0895 16.3241 18.1293 16.486 18.1293 16.6503C18.1293 16.8146 18.0895 16.9765 18.0134 17.1223C17.9373 17.268 17.8271 17.3934 17.6921 17.4877L12.5639 21.0672C12.4103 21.1745 12.23 21.2378 12.0428 21.2501C11.8556 21.2624 11.6686 21.2232 11.5021 21.1368C11.3357 21.0505 11.1962 20.9203 11.0988 20.7604C11.0014 20.6004 10.9499 20.4169 10.9498 20.2298V16.6503V13.0708C10.9499 12.8837 11.0014 12.7002 11.0988 12.5402C11.1962 12.3803 11.3357 12.2501 11.5021 12.1638C11.6686 12.0774 11.8556 12.0382 12.0428 12.0505C12.23 12.0628 12.4103 12.1261 12.5639 12.2334L17.6921 15.8129C17.8271 15.9072 17.9373 16.0326 18.0134 16.1783Z"
                      fill="url(#paint0_linear_70825_1041)"
                    />
                    <defs>
                      <linearGradient
                        id="paint0_linear_70825_1041"
                        x1="15.6166"
                        y1="1.66675"
                        x2="15.6166"
                        y2="28.3334"
                        gradientUnits="userSpaceOnUse"
                      >
                        <stop stop-color="#F8E889" />
                        <stop offset="1" stop-color="#E4B764" />
                      </linearGradient>
                    </defs>
                  </svg>